<svg id="Layer_1" data-name="Layer 1" xmlns="http://www.w3.org/2000/svg" viewBox="0 0 512 512"><defs><style>.cls-1{fill:#ffffff;}</style></defs><title>gift-handdrawn</title><path class="cls-1" d="M279.35,85.82c-1.92-1.92,1.29-6.86,1.29-9.79s.54-4.13,2.46-6,3.12-3.51,6-3.51,7.23-1.51,9.15.41,2.35,6.22,2.35,9.15-3.1,4.56-5,6.48-3.55,5.69-6.48,5.69S281.27,87.74,279.35,85.82ZM146.6,50c.57.23,1.21.52,1.43.4A12.06,12.06,0,0,0,150,48.88c.09-.07,0-.28.11-.37.67-.85,1.13-1.93,2.12-2.46.62-.33,1.51-.4,1.67-1.19s.71-.88,1.14-1.25,1.28-.63,1.54-1.33.69-.9,1.81-.57c.27.08.4,0,.44-.12a15.37,15.37,0,0,1,.79-2.84c.23-.43.4-1,1.64-.35a10.65,10.65,0,0,0,1.48.59c.94.81,2.7.8,3.44,1.82s3.07,0,2.46,2.21c-.06.21.39-.08.55-.08s.81-.24.77.07c-.32,2.28.29,3.66,1.46,4.45.73.49.8,1.62.77,2.85,0,.39.09.69.69.45,1.79-.7,1.79.37,1.68,1.56,0,.35-.11.74.1.85,1,.52,2.11.95,3.19,1.39.29.12.85,0,.9.34.17,1.09,2.59-.12,4.66-1a5.89,5.89,0,0,0,1.08-.74c.33-.26,1-.91,1.49-1.36a13.54,13.54,0,0,0,1.16-1.34c.94-1.4.44-1.37.12-1.53s-.62-.78-.78-1.31c-.07-.25.44-1.07,2.15-3s1.83-2.35,1.63-2.49a8.63,8.63,0,0,1-1.51-1.07c-1.06-1.1-3.26-1.07-2.9-3.6,0-.29-.31-.2-.49-.28-.65-.27-1.57-.28-1.91-.86-.72-1.22-1.2-2.68-2.48-3.35-.7-.36-2.26.1.07-3.26.19-.27.07-.25,0-.33a4.76,4.76,0,0,0-.57-1.62c-.09-.1-.16-.23-.25-.34.17-.61.49-1.07,1.58-.76.21.06-.08-.39-.08-.55s-.24-.81.07-.77c2.28.32,3.66-.29,4.45-1.46.49-.73,1.62-.8,2.85-.77.39,0,.69-.09.45-.69-.7-1.79.37-1.79,1.56-1.68.35,0,.74.11.85-.1.52-1,.95-2.11,1.39-3.19.12-.29,0-.85.34-.9,1.09-.17-.12-2.59-1-4.66a5.89,5.89,0,0,0-.74-1.09c-.26-.33-.91-1-1.36-1.49a13.51,13.51,0,0,0-1.34-1.16c-1.4-.94-1.37-.44-1.53-.12s-.78.62-1.31.78c-.25.07-1.07-.44-3-2.15S181.16,4.93,181,5.13A8.63,8.63,0,0,1,180,6.64c-1.1,1.06-1.07,3.26-3.6,2.9-.29,0-.2.31-.28.49-.27.65-.28,1.57-.86,1.91-1.22.72-2.68,1.2-3.34,2.48-.3.58-.06,1.73-1.91.76-.56-.94-1.11-1.89-1.68-2.82a3.66,3.66,0,0,0-1-1.14c-.26-.19-.63-.28-4,2.93-1.4,1.32-1.72,1.45-1.84,1.37a1,1,0,0,0-.58-.28c-.83,0-1-.73.13-2.69.4-.69.19-.82.11-1.06s-.39-.31-.48-.57c-.44-1.37-.84-2.78-1.27-4.17,0-.12-.15-.17-.24-.24-.61-.57-1.26-1.1-1.81-1.73-.18-.2.08-.84-.19-1-1.42-.55-3-.93-4.4-1.52-.56-.24-2.82,1.36-6.19,4.08-.54.64-1.12,1.29-1.17,1.41-.23.57-.52,1.21-.4,1.43a12.06,12.06,0,0,0,1.51,1.93c.07.09.28,0,.37.11.85.67,1.93,1.13,2.46,2.12.33.62.4,1.51,1.19,1.67s.88.71,1.25,1.14.63,1.28,1.33,1.54.9.69.57,1.81c-.08.27,0,.4.12.44a15.36,15.36,0,0,1,2.84.79c.43.23,1,.4.35,1.64-.13.28-.18.47-.28.72a12.67,12.67,0,0,0-1,1.07c-.09.1-.14.25-.26.32-1.43.86-2.89,1.7-4.31,2.57A3.66,3.66,0,0,0,150,28c-.18.26-.28.63,2.93,4,1.32,1.4,1.45,1.72,1.37,1.84a1,1,0,0,0-.28.58c0,.83-.73,1-2.69-.13-.69-.4-.82-.19-1.06-.11s-.31.39-.57.48c-1.37.44-2.78.84-4.17,1.27-.12,0-.17.15-.24.24-.57.61-1.1,1.26-1.73,1.81-.2.18-.84-.08-1,.19-.55,1.42-.93,3-1.52,4.4-.24.56,1.36,2.82,4.08,6.19C145.84,49.36,146.48,49.95,146.6,50ZM401.3,150.81c.57.23,1.21.52,1.43.4a12,12,0,0,0,1.93-1.51c.09-.07,0-.28.11-.37.67-.85,1.13-1.93,2.12-2.46.62-.33,1.51-.4,1.67-1.19s.71-.88,1.14-1.25,1.28-.63,1.54-1.33.69-.9,1.81-.57c.27.08.4,0,.44-.12a15.34,15.34,0,0,1,.79-2.84c.23-.43.4-1,1.64-.35a10.66,10.66,0,0,0,1.49.59c.94.81,2.7.8,3.44,1.82s3.07,0,2.46,2.21c-.06.21.39-.08.55-.08s.81-.24.77.07c-.32,2.28.29,3.66,1.46,4.45.73.49.8,1.62.77,2.85,0,.39.09.69.69.45,1.79-.7,1.79.37,1.68,1.56,0,.35-.11.74.1.85,1,.52,2.11.95,3.19,1.39.29.12.85,0,.9.34.17,1.09,2.59-.12,4.66-1a5.91,5.91,0,0,0,1.09-.74c.33-.26,1-.91,1.49-1.36a13.49,13.49,0,0,0,1.16-1.34c.94-1.4.44-1.37.12-1.53a1.93,1.93,0,0,1-.78-1.31c-.07-.25.44-1.07,2.15-3s1.83-2.35,1.63-2.49a8.65,8.65,0,0,1-1.51-1.07c-1.06-1.1-3.26-1.07-2.9-3.6,0-.29-.31-.2-.49-.28-.65-.27-1.57-.28-1.91-.86-.72-1.22-1.2-2.68-2.48-3.35-.7-.36-2.26.1.07-3.26.19-.27.07-.25,0-.33a4.77,4.77,0,0,0-.57-1.62c-.09-.1-.16-.23-.25-.34.17-.61.49-1.07,1.58-.76.21.06-.08-.39-.08-.55s-.24-.81.07-.77c2.28.32,3.66-.29,4.45-1.46.49-.73,1.62-.8,2.85-.77.39,0,.69-.09.45-.69-.7-1.79.37-1.79,1.56-1.68.35,0,.74.11.85-.1.52-1,.95-2.11,1.39-3.19.12-.29,0-.85.34-.9,1.09-.17-.12-2.59-1-4.66a5.93,5.93,0,0,0-.74-1.09c-.26-.33-.91-1-1.36-1.49a13.45,13.45,0,0,0-1.34-1.16c-1.4-.94-1.37-.44-1.53-.12a1.93,1.93,0,0,1-1.31.78c-.25.07-1.07-.44-3-2.15s-2.35-1.83-2.49-1.63a8.65,8.65,0,0,1-1.07,1.51c-1.1,1.06-1.07,3.26-3.6,2.9-.29,0-.2.31-.28.49-.27.65-.28,1.57-.86,1.91-1.22.72-2.68,1.2-3.35,2.48-.3.58-.06,1.73-1.91.76-.56-.94-1.11-1.89-1.68-2.82a3.66,3.66,0,0,0-1-1.14c-.26-.18-.63-.28-4,2.93-1.4,1.32-1.72,1.45-1.84,1.37a1.05,1.05,0,0,0-.58-.28c-.83,0-1-.73.13-2.69.4-.69.19-.81.11-1.06s-.39-.31-.48-.57c-.44-1.37-.84-2.78-1.27-4.17,0-.12-.15-.17-.24-.24-.61-.57-1.26-1.1-1.81-1.73-.18-.2.08-.84-.19-1-1.42-.55-3-.93-4.4-1.52-.56-.24-2.82,1.36-6.19,4.08-.54.64-1.12,1.29-1.17,1.41-.23.57-.52,1.21-.4,1.43a12,12,0,0,0,1.51,1.93c.07.09.28,0,.37.11.85.67,1.93,1.13,2.46,2.12.33.62.4,1.51,1.19,1.67s.88.71,1.25,1.14.63,1.28,1.33,1.54.9.69.57,1.81c-.08.27,0,.4.12.44a15.36,15.36,0,0,1,2.84.79c.43.23,1,.4.35,1.64-.13.28-.18.47-.28.72a12.72,12.72,0,0,0-1,1.07c-.09.1-.14.25-.26.32-1.43.86-2.89,1.7-4.31,2.57a3.66,3.66,0,0,0-1.14,1c-.19.26-.28.63,2.93,4,1.32,1.4,1.45,1.72,1.37,1.84a1,1,0,0,0-.28.58c0,.83-.73,1-2.69-.13-.69-.4-.82-.19-1.06-.11s-.31.39-.57.48c-1.37.44-2.78.84-4.17,1.27-.12,0-.17.15-.24.24-.57.61-1.1,1.26-1.73,1.81-.2.18-.84-.08-1,.19-.55,1.42-.93,3-1.52,4.4-.24.56,1.36,2.82,4.08,6.19C400.54,150.18,401.18,150.76,401.3,150.81ZM108.73,138.65c2.93,0,4.13-1.58,6-3.51s2.46-3.12,2.46-6,2.22-6.89.3-8.81a14.24,14.24,0,0,0-8.81-3.46c-2.93,0-6.19,2.23-8.11,4.15a12.27,12.27,0,0,0-3.34,8.11c0,2.93.38,7.23,2.3,9.15S105.8,138.65,108.73,138.65ZM512,501.61a2.07,2.07,0,0,1-.83,1.51,5.75,5.75,0,0,1-2.19,1c-7.63,1.54-15.21,3.47-23.09,3-2.57-.16-5.17.21-7.75.3-9.56.34-25.31.69-34.87,1a46.91,46.91,0,0,1-6-.4c-1.32-.13-2.63-.25-3.95-.36a28.53,28.53,0,0,1-9.12.92,42.1,42.1,0,0,0-5.58.3c-6.88.34-13.75.69-20.63,1a24.45,24.45,0,0,1-4.29-.4c-4.86-.69-9.7-1.26-14.58.06a13.54,13.54,0,0,1-5.14.13,112.71,112.71,0,0,0-16.31-1.1,158.55,158.55,0,0,1-20.44-.79c-3.22-.13-6.43-.32-9.64-.49l-.34.06a6.84,6.84,0,0,1-2.12.34c-7-1.48-14,.26-21,.13-10.61-.2-21.19,1.57-31.82.55-5.9-.57-11.84-.43-17.76-.56h-1.95c-.71,0-1.41,0-2.12,0l-13.51.54c-.62,0-1.24,0-1.86,0l-3-.14c-1.4-.07-2.76-.1-4.13-.15-18.89.39-37.77,1-56.7.31-8.22-.31-16.46-.41-24.7-.45l-29.91-.13-4.38-.05,0-.69c-1.65,0-3.29-.05-4.95,0-5.73.23-11.47-.08-17.2-.11-4.77,0-9.55-.22-14.31.06-5.75.34-11.46-.1-17.19-.25-9.16-.25-18.34.08-27.5.18-1,0-1.91.15-2.87.14-6.88,0-13.76,0-20.63-.22a35.87,35.87,0,0,1-6.21-1C1,505.63.63,505,0,504.36c3.9-3.23,7.87-5.28,12.64-5.45,11.84-.42,23.67-1.07,35.51-1.53,2.28-.09,4.58.39,6.87.4,2.67,0,5.34,0,8,0a12,12,0,0,1,7.42-3.41c8.88-.42,17.75-1.07,26.63-1.53,1.71-.09,3.43.39,5.15.4,3.46,0,6.93,0,10.39,0v-.63l1.17-26.85c.38-8.77.72-17.55.9-26.34.26-12.41-.11-24.9-.61-37.3-.52-12.82-1-25.61-.24-38.41.89-15.66,1.17-31.41,3.22-46.91a99.72,99.72,0,0,0,.75-11.38c.06-4,0-7.42-.06-12.22l-.07-5.18c-1.53,0-3.06,0-4.59,0-4.52.08-9,.36-13.3-.87-.73-.21-1.6-.83-1.68-1.32s.6-1.2,1.24-1.51a11.21,11.21,0,0,1,3.29-1c11.48-1.54,22.88-3.47,34.73-3,3.87.16,7.77-.21,11.66-.3l43.13-1c3-.05,6,.2,9,.4,6.91.47,13.81.83,20.72.63,0-.14,0-.28,0-.42-.14-1.24-.13-1.89-.16-2.86,0-.63-.26-1.2-1.7-1.46-3.51-.64-3.66-2.08-3.7-3.48-.07-2.19,0-4.38.1-6.57l.93-21.51c0-.6,0-1.2,0-1.79,0-3.88-.3-7.75.36-11.64a28,28,0,0,0,.41-3.89,43.78,43.78,0,0,1-15.39-5c-5.73-.37-11.46-.49-17.24-.34-9,.23-18-.08-27-.11-7.48,0-15-.22-22.45.06-9,.34-18-.1-27-.25l-10.78-.09A9.11,9.11,0,0,0,90.43,225a8.84,8.84,0,0,0-1.36,4.36l0,5.3.1,10.79.14,4.49-.06,16.18-.06,8.09c0,1.3-.06,2.79,0,3.95a9,9,0,0,0,.78,3.29,10.9,10.9,0,0,0,6,5.92c.62.21,1,.94,2.1,1.6a11.09,11.09,0,0,1-11.76-1.72,13.44,13.44,0,0,1-4.18-6.2,17,17,0,0,1-.68-3.82q-.12-1.35-.15-2.75l-.75-27.84-.4-13.92,0-1.74c0-.58-.05-1,0-2.2A17.94,17.94,0,0,1,81.37,223a18.3,18.3,0,0,1,7.58-8.92,16.59,16.59,0,0,1,8.87-2.31c2,.09,3.66.23,5.52.23l33.26,0h4.5l51.22,1.54h1.41a19.45,19.45,0,0,0-3.67-4,12.26,12.26,0,0,1-1.93-2c-.41-.51-.95-.83-2.28-.2-3.26,1.54-4.4.21-5.25-1.2a32.66,32.66,0,0,1-3.36-6.91,45.44,45.44,0,0,1-1.72-24.53c.14-.67.16-1.36.32-2,.91-4.34,2.29-8.69,5-12.3,4.95-6.35,10.08-12.32,16.86-16.65a41.35,41.35,0,0,1,6.9-3.54c8.26-3.59,17.68-3.43,26.16-1.23a31.8,31.8,0,0,1,7.09,3c.29.16.65.26.81.6,1.94,4.12,5.24,5.17,8.21,7.21a32.87,32.87,0,0,1,8.89,10.64,40.09,40.09,0,0,1,2.65-4.8,19.78,19.78,0,0,1,2.85-2.88,45.66,45.66,0,0,1,9.37-8.06c.48-.3.94-.62,1.44-.87a43.36,43.36,0,0,1,18.21-4.35c1.19,0,2.37-.18,3.55-.13A6,6,0,0,1,297,140a17.59,17.59,0,0,0,8,2.8,10.94,10.94,0,0,1,2.7.65c.62.2,1.25.18,2-1.07,1.92-3.08,3.59-2.52,5.07-1.82a31.54,31.54,0,0,1,6.54,4,46,46,0,0,1,14.73,19.69l.77,1.91a29,29,0,0,1,2.44,13c-.65,8-1.79,15.82-5.16,23.13A43.59,43.59,0,0,1,330.2,209c-.46.69-1.07,1.26-1.59,1.91l14,.2,5.4,0c11.68,0,23.33-.3,35,.36,10.62.6,21.25.79,31.9.78.81,0,1,0,2.33,0a16.59,16.59,0,0,1,3.29.46,17.84,17.84,0,0,1,13.26,13.53,19.08,19.08,0,0,1,.39,3.32l0,2.12.06,4,.12,8,.24,20.69.11,8.87,0,4.45a18.19,18.19,0,0,1-1.61,7.48,18.46,18.46,0,0,1-11.08,9.94,19.27,19.27,0,0,1-3.76.79l-1.91.09h-1.12L411,296l-10.5-.1c1.5,13.35,3.22,26.64,2.75,40.42-.16,4.72.21,9.5.3,14.25l1,52.71c.05,3.65-.2,7.32-.4,11-.69,12.42-1.26,24.8.06,37.25a87.69,87.69,0,0,1,.13,13.14l-.76,17.94-.25,9.15q0,1.4,0,2.81c2.48-.1,5-.21,7.43-.29a33,33,0,0,1,4.78-.11c13.54,1.54,27.09.35,40.64.37,5.37,0,16.95-.15,22.32-.24,2.05,0,4,.18,5.33,2.18a6.2,6.2,0,0,0,5.2,2.72c4.37.2,8.75.41,13.11.28,3-.08,6-.36,8.84.87A2.06,2.06,0,0,1,512,501.61ZM306.16,224.85a32.46,32.46,0,0,1-4.87.65c-.33,0-.68.15-1,0a13.32,13.32,0,0,0-2.37-1.08l-4.09-.25v.16l-.33,7.82a76.79,76.79,0,0,0,.56,8.65,8.29,8.29,0,0,1,.11,2.39c-1.54,6.76-.35,13.53-.37,20.3,0,2.69.15,5.37.24,8.06,0,1-.18,2-2.18,2.67s-2.62,1.58-2.72,2.6c-.11,1.2-.21,2.41-.26,3.61,14.45.07,28.9.54,43.31,1.61a60.55,60.55,0,0,0,7.94-.37,29,29,0,0,1,4.44-.34c14.67,1.48,29.31-.26,44-.13,5.55,0,11.09,0,16.63-.15l8.31-.21,2.08-.06,1,0a1.62,1.62,0,0,1,.29,0,2.84,2.84,0,0,0,1-.44,3,3,0,0,0,1.23-1.79,4.78,4.78,0,0,0,.06-.51v-1.34l0-4.16c0-5.55.06-11.1.32-16.65.31-6.72.41-13.47.45-20.21l0-5.06a7.57,7.57,0,0,0,0-.8,2.61,2.61,0,0,0,0-.4,3.16,3.16,0,0,0-.23-.76,3.68,3.68,0,0,0-2.45-2.06,6.06,6.06,0,0,0-.86-.13l-2.25-.1-4.49-.24c-14.36-.72-28.71-1.71-43.09-2.08-10.15-.26-20.37.11-30.52.61A277.45,277.45,0,0,1,306.16,224.85Zm-45.44-52.9c.21.59.46,1.15.64,1.76a9.15,9.15,0,0,1,.5,2.49c0,1.83-.27,3.62-.27,5.39,0,.45,0,.84,0,1.27a2.49,2.49,0,0,1,.67.71c1.54,3.58,3.47,7.14,3,10.84a18.06,18.06,0,0,0,.3,3.64l.5,6.73.24,3.36.11,1.68c0,.25,0,.3,0,.3l-.11,0h.16c3.81,0,7.61,0,11.42.06l26.6.38c.91-.47,1.81-.94,2.69-1.32,5.31-2.28,8.27-7.3,12-11.2,2.38-2.47,3.53-5.78,4.45-9l.82-2.16a25.63,25.63,0,0,0,1.81-11.39A15.92,15.92,0,0,0,323,168c-1.71-2.31-3.57-4.26-4.88-6.79-1.63-3.18-4.09-5.66-6.27-9.22a7.65,7.65,0,0,0-4.72-3,29.09,29.09,0,0,0-10-1.14,3.47,3.47,0,0,1-1.54-.25,10.47,10.47,0,0,0-6.61-.25,59.78,59.78,0,0,0-7.74,2,21,21,0,0,0-5.89,3.12c-2.06,1.71-4.36,3.06-6.38,4.87A28.75,28.75,0,0,0,262,168c-.2.4-.19.88-.36,1.29A24.12,24.12,0,0,0,260.72,171.95Zm-21.14,55c-.92-.13-1.83-.2-2.75-.27l-3.09.27a6.42,6.42,0,0,1-1.73-.17,4.77,4.77,0,0,0-1,1.94c-.38,2.38-.72,4.77-.9,7.16A45.52,45.52,0,0,0,230.7,246c.52,3.48,1,7,.24,10.44-.89,4.26-1.17,8.54-3.22,12.75-1,2-.79,4.16-.68,6.24.08,1.69.22,3.06.38,4.31,1.4-.11,2.81-.18,4.21-.37a58.75,58.75,0,0,1,10.75-.13c11.35.66,22.67,1.23,34.11,1.1,1.76,0,3.52,0,5.27,0a12.81,12.81,0,0,1-.57-5.14,20.42,20.42,0,0,0-.3-3.87l-1-14.32a12,12,0,0,1,.4-3c.69-3.38,1.26-6.74-.06-10.12a6.6,6.6,0,0,1-.13-3.57,54.83,54.83,0,0,0,1.1-11.33l0-.55v-.08l0-.17a1.75,1.75,0,0,1,0-.35,5.85,5.85,0,0,1,.27-.95,7.54,7.54,0,0,0-1.41-1.34c-.25-.19-1.59.21-2.33.37-.49.09-1,.48-1.47.34-4.87-1.48-9.73.26-14.6.13C254.31,226.24,247,228,239.58,227Zm-12.29-14.85,8.28-.22,6.87-.24c2.47-.13,4.93-.15,7.4-.12a11.06,11.06,0,0,1-.48-4.5,18.06,18.06,0,0,0-.3-3.64l-1-13.46a10.62,10.62,0,0,1,.4-2.8,27.91,27.91,0,0,0,.72-4.75,6,6,0,0,0-1-3.68,3.57,3.57,0,0,1-.53-2.49,15.34,15.34,0,0,0-1.81-8.05,116.89,116.89,0,0,0-8.19-11.39c-.43-.57-1.28-.55-1.93-.77-.37-.12-.89,0-1.13-.3-2.68-3.13-7-2.71-10.53-3.26a19.43,19.43,0,0,0-8.28.66c-2.69.63-5.16,1.64-7.86,2.28-3.31.81-6.1,2.95-8.64,5.19l-1.86,1.38a25.15,25.15,0,0,0-7.63,8.61c-1.33,2.48-1.47,5.41-1.36,8.13a44.33,44.33,0,0,1,.47,8.37c-.32,3.54.35,7,.28,11.13a7.71,7.71,0,0,0,2.37,5.06,28.53,28.53,0,0,0,7.8,6.36,3.49,3.49,0,0,1,1.14,1.07,10.2,10.2,0,0,0,3.69,2.93,38.94,38.94,0,0,1,6.87.56c2.42.5,4.86.84,7.3,1.1,0-1,0-2,0-3Zm-5.44,201.41c-.14-1.86-.13-3.72-.16-5.59,0-1.31-.26-2.49-1.7-3-3.51-1.33-3.66-4.32-3.7-7.24-.07-4.55,0-9.11.1-13.67l.93-44.73,0-3.73c0-8.07-.3-16.12.36-24.21.31-3.84.51-7.68.63-11.52l.07-4.83-37.27-.92L169,294a79.43,79.43,0,0,1-10.86-.62c-.73-.12-1.47-.19-2.2-.3l-7.26.07c-2.53,0-4.94-.17-6.83-1.33q-6.52-.22-13.12.06c-2,.13-3.74.13-5.61.15v.31a4.12,4.12,0,0,0,1.7,3.78,16.22,16.22,0,0,0,2.05,1.15c.51-.16.86,1.09,1.1,2.23a38.82,38.82,0,0,1,.55,7.47c.07,8.06,0,16.12-.1,24.18l-.93,79.14,0,6.6c0,14.28.3,28.52-.36,42.83q-.47,10.19-.63,20.39l-.15,13.37,30.16-.35,15.6-.15c1.07-1.51,2.61-1.6,4.12-1.63,3.15-.07,6.31,0,9.46.1,10.32.29,20.65.62,31,.93.49,0,1,0,1.47,0l0-10.73c0-1,0-2.07,0-3.11l1.54-35.38,0-6.82a25.7,25.7,0,0,1,.62-6.14A45.44,45.44,0,0,0,221.85,413.55Zm61.41,79.23C282,486.39,280.8,480,281.2,473.4c.16-2.67-.21-5.37-.3-8.05l-1-29.79a50.62,50.62,0,0,1,.4-6.2c.69-7,1.26-14-.06-21.05a28.1,28.1,0,0,1-.13-7.43,234.15,234.15,0,0,0,1.1-23.56,312.74,312.74,0,0,1,1.59-38.46,29,29,0,0,0-.37-5.48,14,14,0,0,1-.34-3.06c1.48-10.13-.26-20.25-.13-30.37l0-2.56,0-.65a10.27,10.27,0,0,0-.14-1.15h0c-.67.09-1.28.21-1.77.32l-8.05.3c-5.72.15-11.44.16-17.17-.23-2.91-.19-5.83-.29-8.74-.36h-2.41l-4.19-.1-5,0-1.6-.09-.35,0h0l-.35.95-.28,1a9,9,0,0,0-.15,1.38l-.15,1.86-.59,7.44c-.38,5-.72,9.92-.9,14.89a195.64,195.64,0,0,0,.61,21.08c.52,7.25,1,14.48.24,21.71-.89,8.85-1.17,17.75-3.22,26.52-1,4.17-.79,8.65-.68,13,.19,7.86.73,15.72,1.09,23.58a19.22,19.22,0,0,1-.17,3.7,82.58,82.58,0,0,0-.66,15.49c.23,6.2-.08,12.42-.11,18.64,0,5.17-.22,10.35.06,15.51.17,3.09.14,6.17.06,9.25l0,1a75.41,75.41,0,0,1,8.77.43c1.13.13,2.25.18,3.38.27q13,.12,26,.2l1.16,0c3.3-.1,6.6-.12,9.89-.24C278.72,492.81,281,492.79,283.26,492.78Zm112.41-197-20.17-.2c-6.89,0-13.77-.36-20.66-.56a11.08,11.08,0,0,1-2.62-.19L303,296c-2.12,0-4.25-.05-6.38-.16l-.13,13.11c0,4.76-.36,9.51-.56,14.27a5.17,5.17,0,0,1-.2,1.84c-3,6.72-1.94,13.89-1.76,20.77.33,12.65-.19,25.25-.46,37.88-.13,6,.36,12,.56,18a35.62,35.62,0,0,1,.11,5c-1.54,14.07-.35,28.15-.37,42.23l.24,16.75c0,2.13-.18,4.16-2.18,5.54a6.52,6.52,0,0,0-2.72,5.4c-.2,4.54-.41,9.09-.28,13.62,0,.88.05,1.75.07,2.62,7.15.09,14.3.34,21.45.4,3.29,0,6.59.36,9.88.56a2.54,2.54,0,0,1,1.28.2,12.71,12.71,0,0,0,5.32,1.93c2.32-.06,4.63-.13,6.92-.16.75,0,1.49,0,2.24,0,4-.15,8-.11,12,0,5.5,0,11-.07,16.49,0l7.42.09c.88-.06,1.75-.13,2.63-.17a17.11,17.11,0,0,1,3.44-.11c1.5.24,3,.31,4.49.43l8.33.17.07-2.83v-6.2l-.15-8-.4-15.92c-.06-2.93-.29-5.9-.11-8.78,1.54-24.89.35-49.81.37-74.71l-.24-29.64c0-3.77.18-7.37,2.18-9.81s2.62-5.82,2.72-9.56c.2-8,.41-16.08.28-24.1C395.5,303,395.4,299.35,395.66,295.81Z"/></svg>