<svg width="511.99906" height="511" xmlns="http://www.w3.org/2000/svg">
 <g>
  <path style="fill:#ffffff;" d="m451.36824,336.78764l-89.30197,31.3298c0.39593,-2.24297 0.61794,-4.53125 0.61794,-6.85351c0,-21.31952 -16.99527,-38.66665 -37.89062,-38.66665l-61.34283,0c-1.62811,0 -3.23402,-0.4267 -4.65122,-1.24232l-50.04596,-28.72433c-9.89448,-5.69049 -21.13955,-8.7 -32.51784,-8.7l-67.15224,0c-3.90747,-11.24882 -14.43839,-19.32954 -26.78615,-19.32954l-56.83592,0c-5.23216,0 -9.47265,4.32734 -9.47265,9.66666l0,173.99613c0,5.33932 4.24049,9.66666 9.47265,9.66666l56.83592,0c12.06653,0 22.41245,-7.73711 26.51973,-18.60454c10.72335,1.35937 23.1303,4.59543 30.92674,9.36835l49.53902,30.33293c18.7677,11.49426 40.25508,17.56991 62.14579,17.56991c17.3468,0 34.15335,-3.71562 49.95715,-11.04114l176.8019,-79.44411c19.58175,-8.10716 29.25051,-32.08123 18.05725,-53.21195c-8.23307,-15.54973 -27.5151,-22.46744 -44.8767,-16.11236zm-359.59822,92.18824c-0.0222,5.3091 -4.2664,9.62134 -9.47265,9.62134l-47.36327,0l0,-154.66281l47.36327,0c5.22106,0 9.47265,4.33489 9.47265,9.66666l0,135.3748zm379.22068,-40.74347c-0.09991,0.03776 -0.19982,0.08308 -0.29971,0.1246c0,0 -177.06463,79.56116 -177.09793,79.57627c-13.33942,6.19271 -27.5262,9.33059 -42.16441,9.33059c-18.45687,0 -36.57332,-5.12031 -52.39562,-14.81341l-49.54272,-30.33292c-10.60493,-6.49102 -25.79078,-10.44831 -38.77497,-12.03424l0,-116.81557l65.52042,0c8.12576,0 16.15532,2.14479 23.2265,6.21158l50.04595,28.72433c4.24049,2.43932 9.06562,3.73073 13.94256,3.73073l61.34283,0c10.44583,0 18.94531,8.66979 18.94531,19.33332c0,10.622 -8.50318,19.33332 -18.94531,19.33332l-96.29545,0c-5.23215,0 -9.47265,4.32734 -9.47265,9.66666c0,5.33554 4.2405,9.66288 9.47265,9.66288l96.29545,0c6.21273,0 12.32926,-1.57461 17.75753,-4.52747c0,0 115.13345,-40.38852 115.17785,-40.40363c8.48839,-3.12656 18.08685,-0.0151 21.85001,7.09141c5.64289,10.65221 0.97687,22.23332 -8.5883,26.14152zm0,0"/>
 </g>
</svg>