<?xml version="1.0" encoding="utf-8"?>
<svg viewBox="0 0 500 500" xmlns="http://www.w3.org/2000/svg" xmlns:bx="https://boxy-svg.com">
  <defs>
    <linearGradient y2="0.01953" x2="0.94922" y1="0.55469" x1="0" id="svg_5">
      <stop stop-opacity="0.99609" style="--darkreader-inline-stopcolor:#194d65;" offset="0" stop-color="#9acee6"/>
      <stop style="--darkreader-inline-stopcolor:#2a3499;" offset="1" stop-opacity="0.99609" stop-color="#3541bf"/>
    </linearGradient>
  </defs>
  <g transform="matrix(2.133435, 0, 0, 2.182227, 42.375122, 37.674122)" style="">
    <title>Layer 1</title>
    <circle style="fill: rgb(6, 10, 41);" cx="136.862" cy="136.1" r="134.978" transform="matrix(0.788362, -0.001317, 0.001338, 0.765447, -11.811818, -8.585077)"/>
    <path stroke="null" id="svg_1" fill="url(#svg_5)" d="M 135.861 27.129 C 144.463 18.662 158.594 18.662 167.195 27.129 C 175.798 35.604 175.798 49.522 167.195 57.994 C 162.126 62.987 155.367 65.103 148.457 64.197 C 148.148 64.197 147.845 64.197 147.381 64.197 C 145.385 63.893 143.234 64.197 141.083 65.103 C 138.164 66.466 136.167 68.735 135.095 71.458 C 134.018 74.18 134.171 77.204 135.401 79.929 C 142.772 95.665 139.395 114.722 126.797 126.979 C 114.204 139.381 95.006 142.711 79.03 135.45 C 76.113 134.088 73.039 134.088 70.274 135.146 C 67.508 136.206 65.205 138.173 63.978 140.894 C 63.21 142.711 62.747 144.527 62.902 146.493 C 62.902 146.797 62.902 147.248 62.902 147.552 C 64.13 154.51 61.672 161.618 56.758 166.615 C 48.156 175.085 34.023 175.085 25.425 166.615 C 21.278 162.528 18.972 157.082 18.972 151.183 C 18.972 145.433 21.278 139.834 25.425 135.749 C 30.494 130.759 37.252 128.642 44.162 129.548 C 44.315 129.548 44.315 129.548 44.47 129.548 C 45.238 129.698 46.007 129.853 46.775 129.853 C 48.462 129.853 50 129.548 51.534 128.793 C 54.453 127.429 56.452 125.159 57.372 122.59 C 58.448 119.868 58.448 116.692 57.064 113.815 C 49.694 97.935 53.07 79.024 65.665 66.766 C 78.263 54.363 97.463 51.034 113.437 58.298 C 116.2 59.658 119.425 59.658 122.192 58.598 C 124.955 57.541 127.26 55.573 128.642 52.852 C 129.716 50.734 129.871 48.311 129.564 46.043 L 129.564 46.043 C 128.49 39.237 130.795 32.127 135.861 27.129 Z M 113.896 114.27 C 123.42 104.891 123.42 89.613 113.896 80.081 C 104.373 70.704 88.858 70.704 79.183 80.081 C 69.66 89.461 69.66 104.737 79.183 114.27 C 88.858 123.649 104.373 123.649 113.896 114.27 Z M 175.334 66.163 C 188.392 53.303 188.392 32.425 175.334 19.419 C 162.282 6.558 141.083 6.558 127.874 19.419 C 122.96 24.258 120.04 30.157 118.659 36.211 C 94.85 27.433 67.664 33.035 49.538 50.884 C 31.413 68.735 25.732 95.665 34.793 119.109 C 28.496 120.32 22.506 123.348 17.591 128.188 C 4.535 141.045 4.535 161.923 17.591 174.935 C 30.646 187.789 51.844 187.789 65.052 174.935 C 69.968 170.091 73.039 164.039 74.268 157.838 C 81.64 160.564 89.32 161.923 97.001 161.923 C 114.051 161.923 130.795 155.418 143.234 143.165 C 161.358 125.312 167.042 98.689 158.287 75.39 C 164.432 73.879 170.42 70.849 175.334 66.163 Z" class="st0" style="" bx:origin="0.502 0.497"/>
    <path d="M 982 441 m -115.177 0 a 115.177 112.843 0 1 0 230.354 0 a 115.177 112.843 0 1 0 -230.354 0 Z M 982 441 m -88.686 0 a 88.686 86.888 0 0 1 177.372 0 a 88.686 86.888 0 0 1 -177.372 0 Z" style="fill: rgb(6, 10, 41); fill-rule: evenodd;" transform="matrix(-0.850357, 0.526206, -0.543587, -0.839602, 1172.342366, -49.42732)" bx:shape="ring 982 441 88.686 86.888 115.177 112.843 1@45b1228a"/>
    <path d="M 980 520 m -115.776 0 a 115.776 115.216 0 1 0 231.552 0 a 115.776 115.216 0 1 0 -231.552 0 Z M 980 520 m -113.461 0 a 113.461 112.912 0 0 1 226.922 0 a 113.461 112.912 0 0 1 -226.922 0 Z" style="fill: rgb(115, 132, 195); visibility: hidden;" transform="matrix(-0.640444, 0.768005, -0.782191, -0.623432, 1132.284893, -331.106366)" bx:shape="ring 980 520 113.461 112.912 115.776 115.216 1@55ca94b7"/>
  </g>
</svg>