<?xml version="1.0" encoding="UTF-8"?>
<svg xmlns="http://www.w3.org/2000/svg" xmlns:xlink="http://www.w3.org/1999/xlink" viewBox="0 0 30 30" width="30px" height="30px">
<g id="surface70636393">
<path style=" stroke:none;fill-rule:nonzero;fill:rgb(100%,100%,100%);fill-opacity:1;" d="M 15 3 C 12.03125 3 9.304688 4.082031 7.207031 5.875 C 6.921875 6.101562 6.78125 6.46875 6.84375 6.828125 C 6.90625 7.1875 7.160156 7.484375 7.507812 7.605469 C 7.855469 7.722656 8.238281 7.640625 8.503906 7.394531 C 10.253906 5.898438 12.515625 5 15 5 C 20.195312 5 24.449219 8.9375 24.949219 14 L 22 14 L 26 20 L 30 14 L 26.949219 14 C 26.4375 7.851562 21.277344 3 15 3 Z M 4 10 L 0 16 L 3.050781 16 C 3.5625 22.148438 8.722656 27 15 27 C 17.96875 27 20.695312 25.917969 22.792969 24.125 C 23.078125 23.898438 23.21875 23.53125 23.15625 23.171875 C 23.09375 22.8125 22.839844 22.515625 22.492188 22.394531 C 22.144531 22.277344 21.761719 22.359375 21.496094 22.605469 C 19.746094 24.101562 17.484375 25 15 25 C 9.804688 25 5.550781 21.0625 5.046875 16 L 8 16 Z M 4 10 "/>
</g>
</svg>
